# xmcd
#
# Track frame offsets:
#	150
#	22762
#	46355
#	65062
#	89972
#	109145
#	126872
#	151049
#	180935
#	197044
#	211317
#	232079
#
# Disc length: 3478 seconds
#
# Revision: 1
# Processed by: cddbd v1.5.2PL0 Copyright (c) Steve Scherf et al.
# Submitted via: audiograbber 1.83.01
#
DISCID=a20d940c
DTITLE=Meena - Try Me
DYEAR=2010
DGENRE=Blues
TTITLE0=Try Me (with Joanne Shaw Taylor)
TTITLE1=Nothing Left (with Joanne Shaw Taylor)
TTITLE2=Send Me A Doctor (with Eric Sardinas)
TTITLE3=Put Your Hands Out Of My Pocket
TTITLE4=Sorry
TTITLE5=I'm Leaving You (with Joanne Shaw Taylor)
TTITLE6=This Song Is For You
TTITLE7=I'd Rather Go Blind (with Donna Grantis)
TTITLE8=Love Won't Fall Apart
TTITLE9=Let Your Sweet Love Shine On Me
TTITLE10=I Shoot You Down (with Eric Sardinas)
TTITLE11=Just As I Am (with Coco Montoya)
EXTD=
EXTT0=
EXTT1=
EXTT2=
EXTT3=
EXTT4=
EXTT5=
EXTT6=
EXTT7=
EXTT8=
EXTT9=
EXTT10=
EXTT11=
PLAYORDER=
